<svg xmlns="http://www.w3.org/2000/svg" viewBox="0 0 1200 560" width="1200" height="560" role="img" aria-label="vencapmentor workflow">
<title>vencapmentor workflow</title>
<rect width="1200" height="560" fill="#101228"/>
<defs><linearGradient id="gk" x1="0" y1="0" x2="1" y2="1"><stop offset="0%" stop-color="#8093f1"/><stop offset="100%" stop-color="#a7c957"/></linearGradient></defs><circle cx="600.00" cy="280.00" r="92.00" fill="none" stroke="rgba(128,147,241,0.500)" stroke-width="1.30" opacity="1.00" stroke-dasharray="6 12"/><circle cx="600.00" cy="280.00" r="154.00" fill="none" stroke="rgba(128,147,241,0.410)" stroke-width="1.30" opacity="1.00" stroke-dasharray="6 12"/><circle cx="600.00" cy="280.00" r="216.00" fill="none" stroke="rgba(128,147,241,0.320)" stroke-width="1.30" opacity="1.00" stroke-dasharray="6 12"/><circle cx="600.00" cy="280.00" r="278.00" fill="none" stroke="rgba(128,147,241,0.230)" stroke-width="1.30" opacity="1.00" stroke-dasharray="6 12"/><polygon points="462.46,307.00 507.49,333.00 507.49,281.00 462.46,255.00" fill="#945363" opacity="0.95"/><polygon points="417.42,333.00 462.46,359.00 462.46,307.00 417.42,281.00" fill="#829d44" opacity="0.95"/><polygon points="462.46,255.00 507.49,281.00 462.46,307.00 417.42,281.00" fill="#8093f1" opacity="0.95"/><text x="600" y="126" font-family="ui-monospace,Menlo,monospace" font-size="15" fill="rgba(242,242,255,0.820)" text-anchor="middle">app</text><polygon points="344.96,560.16 390.00,586.16 390.00,534.16 344.96,508.16" fill="#945363" opacity="0.95"/><polygon points="299.93,586.16 344.96,612.16 344.96,560.16 299.93,534.16" fill="#829d44" opacity="0.95"/><polygon points="344.96,508.16 390.00,534.16 344.96,560.16 299.93,534.16" fill="#a7c957" opacity="0.95"/><text x="785" y="447" font-family="ui-monospace,Menlo,monospace" font-size="15" fill="rgba(242,242,255,0.820)" text-anchor="middle">components</text><polygon points="23.96,374.84 69.00,400.84 69.00,348.84 23.96,322.84" fill="#945363" opacity="0.95"/><polygon points="-21.07,400.84 23.96,426.84 23.96,374.84 -21.07,348.84" fill="#829d44" opacity="0.95"/><polygon points="23.96,322.84 69.00,348.84 23.96,374.84 -21.07,348.84" fill="#ff8fab" opacity="0.95"/><text x="415" y="447" font-family="ui-monospace,Menlo,monospace" font-size="15" fill="rgba(242,242,255,0.820)" text-anchor="middle">lib</text><ellipse cx="600.00" cy="206.00" rx="22.20" ry="40.70" fill="rgba(167,201,87,0.500)" opacity="1.00" transform="rotate(0.0 600.00 206.00)"/><ellipse cx="652.33" cy="227.67" rx="22.20" ry="40.70" fill="rgba(128,147,241,0.450)" opacity="1.00" transform="rotate(45.0 652.33 227.67)"/><ellipse cx="674.00" cy="280.00" rx="22.20" ry="40.70" fill="rgba(167,201,87,0.500)" opacity="1.00" transform="rotate(90.0 674.00 280.00)"/><ellipse cx="652.33" cy="332.33" rx="22.20" ry="40.70" fill="rgba(128,147,241,0.450)" opacity="1.00" transform="rotate(135.0 652.33 332.33)"/><ellipse cx="600.00" cy="354.00" rx="22.20" ry="40.70" fill="rgba(167,201,87,0.500)" opacity="1.00" transform="rotate(180.0 600.00 354.00)"/><ellipse cx="547.67" cy="332.33" rx="22.20" ry="40.70" fill="rgba(128,147,241,0.450)" opacity="1.00" transform="rotate(225.0 547.67 332.33)"/><ellipse cx="526.00" cy="280.00" rx="22.20" ry="40.70" fill="rgba(167,201,87,0.500)" opacity="1.00" transform="rotate(270.0 526.00 280.00)"/><ellipse cx="547.67" cy="227.67" rx="22.20" ry="40.70" fill="rgba(128,147,241,0.450)" opacity="1.00" transform="rotate(315.0 547.67 227.67)"/><circle cx="600.00" cy="280.00" r="31.08" fill="none" stroke="rgba(167,201,87,0.500)" stroke-width="2.59" opacity="0.70"/><circle cx="600.00" cy="280.00" r="11.84" fill="rgba(128,147,241,0.450)" opacity="1.00"/><rect x="504.00" y="276.00" width="192.00" height="3.00" rx="2.00" fill="rgba(242,242,255,0.200)" opacity="1.00"/><text x="600" y="306" font-family="ui-monospace,Menlo,monospace" font-size="14" fill="rgba(242,242,255,0.600)" text-anchor="middle">public-site/index.html boots 3 module(s)</text>
</svg>